/* XPM */
static char *result[] = {
/* columns rows colors chars-per-pixel */
"180 90 91 1 ",
"  c black",
". c #222034",
"X c #4C2B59",
"o c #8B5078",
"O c #FBF236",
"+ c #FFAA6B",
"@ c #99E550",
"# c #76428A",
"$ c #77428A",
"% c #78428A",
"& c #79428A",
"* c #7A448C",
"= c #7B458C",
"- c #7B458D",
"; c #7C458C",
": c #7C458D",
"> c #7D468C",
", c #7F478E",
"< c #7F478F",
"1 c #7F488E",
"2 c #7F488F",
"3 c #5B6EE1",
"4 c #80488E",
"5 c #81488E",
"6 c #80488F",
"7 c #824990",
"8 c #834990",
"9 c #814A91",
"0 c #834A90",
"q c #834A91",
"w c #834B91",
"e c #844A91",
"r c #854B91",
"t c #874B92",
"y c #854C92",
"u c #864C92",
"i c #874C92",
"p c #874C93",
"a c #884C93",
"s c #884D93",
"d c #894D93",
"f c #884E93",
"g c #894E93",
"h c #B468A9",
"j c #B568A9",
"k c #B86AAB",
"l c #BA6AAC",
"z c #BB6BAD",
"x c #BC6CAD",
"c c #BF6DAF",
"v c #C06EAF",
"b c #C06EB0",
"n c #C36FB1",
"m c #C46FB1",
"M c #C470B1",
"N c #C571B1",
"B c #C672B1",
"V c #C571B2",
"C c #C872B3",
"Z c #C972B3",
"A c #C973B3",
"S c #CA73B3",
"D c #C972B4",
"F c #C873B4",
"G c #C973B4",
"H c #CA73B4",
"J c #CC75B5",
"K c #CD75B5",
"L c #CE75B5",
"P c #CE76B5",
"I c #CC75B6",
"U c #CD75B6",
"Y c #CE75B6",
"T c #CE76B6",
"R c #CF77B6",
"E c #D178B7",
"W c #D278B7",
"Q c #D178B8",
"! c #D278B8",
"~ c #D378B8",
"^ c #D67BBA",
"/ c #D77BBA",
"( c #5FA5E4",
") c #4CFFD0",
"_ c #5FCDE4",
"` c #C6FF8F",
"' c #FFF982",
"] c #FFB3E7",
"[ c #CBDBFC",
"{ c white",
"} c None",
/* pixels */
"}}}}}}}}}}}}}}}}}}}}}}}}}}}}}}}}}}}}}}}}}}}}}}}}}}}}}}}}}}}}}}}}}}}}}}}}}}}}}}}}}}}}}}}}}}}}}}}}}}}}}}}}}}}}}}}}}}}}}}}}}}}}}}}}}}}}}}}}}}}}}}}}}}}}}}}}}}}}}}}}}}}}}}}}}}}}}}}}}}}}",
"}}}}}}}}}}}}}}}}}}}}}}}}}}}}}}}}}}}}}}}}}}}}}}}}}}}}}}}}}}}}}}}}}}}}}}}}}}}}}}}}}}}}}}}}}}}}}}}}}}}}}}}}}}}}}}}}}}}}}}}}}}}}}}}}}}}}}}}}}}}}}}}}}}}}}}}}}}}}}}}}}}}}}}}}}}}}}}}}}}}}",
"}}}}}}}}}}}}}}}}}}}}}}}}}}}}}}}}}}}}}}}}}}}}}}}}}}}}}}}}}}}}}}}}}}}}}}}}}}}}}}}}}}}}}}}}}}}}}}}}}}}}}}}}}}}}}}}}}}}}}}}}}}}}}}}}}}}}}}}}}}}}}}}}}}}}}}}}}}}}}}}}}}}}}}}}}}}}}}}}}}}}",
"}}}}}}}}}}}}}}}}}}}}}}}}}}}}}}}}}}}}}}}}}}}}}}}}}}}}}}}}}}}}}}}}}}}}}}}}}}}}}}}}}}}}}}}}}}}}}}}}}}}}}}}}}}}}}}}}}}}}}}}}}}}}}}}}}}}}}}}}}}}}}}}}}}}}}}}}}}}}}}}}}}}}}}}}}}}}}}}}}}}}",
"}}}}}}}}}}}}}}}}}}}}}}}}}}}}}}}}}}}}}}}}}}}}}}}}}}}}}}}}}}}}}}}}}}}}}}}}}}}}}}}}}}}}}}}}}}}}}}}}}}}}}}}}}}}}}}}}}}}}}}}}                          }}}}}}}}}}}}}}}}}}}}}}}}}}}}}}}}}}",
"}}}}}}}}}}}}}}}}}}}}}}}}}}}}}}}}}}}}}}                                 }}}}}}}}}}}}}}}                                                                              }}}}}}}}}}}}}}}}",
"}}}}}}}                                                                                                                                                                       }}}}}}",
"}}}}}}}                                #############//////////]]]]]]]                        ]]]]]]]]]]]]]]]]]]////////////########################################           }}}}}}",
"}}}}}}}  .............###############################////////]]]]]]]]]]]]]]]]]]]]]]]]]]]]]]]]]]]]]]]]]]]]]]]]]]]///////////#################################################  }}}}}}",
"}}}}}}}  ..........#################################/////////]]]]]]]]]]]]]]]]]]]]]]]]]]]]]]]]]]]]]]]]]]]]]]]]]]]////////////################################################  }}}}}}",
"}}}}}}}  ..##########################################////////]]]]]]]]]]]]]]]]]]]]]]]]]]]]]]]]]]]]]]]]]]]]]]]]]]]]///////////################################################  }}}}}}",
"}}}}}}}  .#########################################//////////]]]]]]]]]]]]]]]]]]]]]]]]]]]]]]]]]]]]]]]]]]]]]]]]]]]]///////////################################################  }}}}}}",
"}}}}}}}  .#########################################//////////]]]]]]]]]]]]]]]]]]]]]]]]]]]]]]]]]]]]]]]]]]]]]]]]]]]]]/////////   ##############################################  }}}}}}",
"}}}}}}}  .########################################///////////]]]]]]]]]]]]]]]]]]]]]]]]]]]]]]]]]]]]]]]]]]]]]]]]        ///// {__   ###########################################  }}}}}}",
"}}}}}}}  ..####################################    //  /////]]]]]]]]]]]]]]]]]]]]]]]]]]]]]]]]]]]]]]]]]]]]]]]] {[_____3 //// [____3 #########################################.  }}}}}}",
"}}}}}}}  ..################################### {[_3  {3 ////]]]]]]]]]]]]]]]]]]]]]]]]]]]]]]]]]]]  ]]]]]]]]]] {[_______3 /// _____3  ########################################.  }}}}}}",
"}}}}}}}  ..################################   {_3_3 {[3 ///]]]]]]]]]]]]]]]]]]]]]]]]]]]]]]]]]]] {[ ]]]]]]]]] __      _3 /// __  ___3 #######################################.  }}}}}}",
"}}}}}}}  .################################ {[__3 33 [_3 ///]]]]]]]]]]]]]]]]]]]]]]]]]]]]]]]]]]] {[ ]]]]]]]]] __ ]]]] _3 /// __ # __3 #######################################.  }}}}}}",
"}}}}}}   .################################ [_33 /   _3 ////]]]]]]]]]]]]]]]]]]]]]]]]]]]]]]]]]]] [_ ]]]]]]]]]]  ]]]]] _3 /// __ ## __3 ######################################.  }}}}}}",
"}}}}}}  ..############################### {_3  #/// _3 ///]]]]]]]]]]]]]]]]]]]]]]]]]]]]]]]]]]]] [_ ]]]]]]]]]]]]]]]]] _3 /// __ ### _3 ######################################.  }}}}}}",
"}}}}}}  ..############################## {[3 ###/// _3 ///]]]]]]]]]]]]]]]]]]]]]]]]]]]]]]]]]]]] __ ]]]]]]]]]]]       _3 /// __ ### _3 ######################################.  }}}}}}",
"}}}}}}  ..############################## [_3 ##//// _3 ///]]]]]]]]]]]]]]]]]]]]]]]]]]]]]]]]]]]] __ ]]]]]]]]]] {[______3 /// __ ### ((3 #####################################.  }}}}}}",
"}}}}}}  ..############################# {_3 ###//// _3 //]]]]]]]]]]]]]]]]]]]]]]]]]]]]]]]]]]]]] __ ]]]]]]]]]] [(((((__ //// (_ #### (3 #####################################.  }}}}}}",
"}}}}}}  ..############################# [_ ####//// _3 //]]]]]]]]]]]]]]]]]]]]]]]]]]]]]]]]]]]]] __ ]]]]]]]]]]]  (((((_ //// (( #### (3 ####################################..  }}}}}}",
"}}}}}}  ..############################# __ ####//// _3 /   ]]]]]]]]]]]]]]]]]]]]]]]]]]]]]]]]]]] __ ]]]]]]]]]]]]]   (((  /// (( #### (3 ####################################..  }}}}}}",
"}}}}}}  .############################## __ ###///// __3 {33 ]]]  ]]]]]]]]]]  ]  ]]]]   ]]]]]]] __ ]]]]]]]]]]]]]]]] (((3 / {(( #### (3 ####################################..  }}}}}}",
"}}}}}}  .############################## (_ ###////// ____[3 ]] {3 ]]  ]]]] {3 {3 ]  {_3 ]]]]]] _( ]]]]]]]]]]]]]]]]] (((3  [( //## ((3 X###################################..  }}}}}}",
"}}}}}}  .############################## (( ###////// ______3 ] [3 ] {3 ]]] [___[3 {[[__3 ]]]]] _( ]]]]]]]]]]]]]]]]]]  (3  (( /   ((3 XX###################################..  }}}}}}",
"}}}}}}  .############################## ((3   ////// (__( _3 ] _3 ] [3 ]]] _____3 [(( (3 ]]]]] _( ]]]]]]]]]]]]]]]]]] ((3  ((  ((((3 XXX###################################..  }}}}}}",
"}}}}}}   ##############################X ((333    // (_(  (3 ] _3 ] _[3 ]] ___ ____(  (3 ]]]] {(( ]]]]]]]]]]]  ]]]   (3 o (( ((333 XXX####################################..  }}}}}}",
"}}}}}}   #############################XXX ((((3333 / (((  ((3  _3 ] __3 ]] __( _((( o ((3 ]]] [( ]]]]]]]]]]] {[   ((((3 o ((((3   XX####################################....  }}}}}}",
"}}}}}}   #############################XXXX   ((((3 / ((( o (3  ((3 _((3 ]] _(  ((( ooo (3 ]]] [( ]]]]]]]]]] {[((((((33 oo ((33 ooXX#####################################....  }}}}}}",
"}}}}}}   #############################XXXXXXo     o/ ((( o ((3  (((((((3   ((  ((3 ooo (3 ]] {((          ] 33333333  ooo 33  oooX######################################....  }}}}}}",
"}}}}}}   ###############################XXXXooooooo/ (( oo ((3 o (((  ((33 (( o   oooo (3 ]] [(((((((((((3 o        oooooo  ooo//#######################################....  }}}}}}",
"}}}}}}   ###############################X##/ooooooo/o  oooo   ooo (( o ((3 (( oooooooo ((3 ] (((((((((((33 oooooooooooo//oooo////#/#####################################...   }}}}}}",
"}}}}}}   ##############################/###//ooo//oooooooooooooooo  ooo   o  oooooo]]o ((3 ] (3           oooooooooo]]////o//////#######################################...  }}}}}}}",
"}}}}}}   ###################################///////ooooo]]]ooo]]ooooooooooooooo]]]]]]oo (3 ]o  oooooooooooo]oooo]]]]]]//////////#/######################################...  }}}}}}}",
"}}}}}}   #################################/#/////////]]]]]]ooo]]]ooo]]]oo]]ooo]]]]]]]]oo  o]]oooo]]oo]]oooo]]]]]]]]]]]///////////#/#####################################...  }}}}}}}",
"}}}}}}   ###############################/////#///////]]]]]]]]]]]]]]]]]]]]]]]]]]]]]]]]]ooooo]]oo]]]]]]]]]]]]]]]]]]]]]]]]////////#/#######################################...  }}}}}}}",
"}}}}}}   #################################///////////]]]]]]]]]]]]]]]]]]]]]]]]]]]]]]]]]]ooo]]]]]]]]]]]]]]]]]]]]]]]]]]]]]////////////#####################################...  }}}}}}}",
"}}}}}}   ###################################////////]]]]]]]]]]]]]]]]]]]]]]]]]]]]]]]]]]]]]]]]]]]]]]]]]]]]]]]]]]]]]]]]]]]/////////##-#####################################...  }}}}}}}",
"}}}}}}   ################################K#/##//////]]]]]]]]]]]]]]]]]]]]]]]]]]]]]]]]]]]]]]]]]]]]]]]]]]]]]]]]]]]]]]]]]]]/////////#W######################################...  }}}}}}}",
"}}}}}}   ###################################////////]]]]]]]]]]]]]]]]]]]]]]]]]]]]]]]]]]]]]]]]]]]]]]]]]]]]]]]]]]]]]]]]]]]]/////////K-#####################################...  }}}}}}}",
"}}}}}}   ###############################$#4/#///////]]]]]]]]]]]]]]]]]]]]]]]]]]]]]]]]]]]]]]]]]]]]]]]]]]]]]]]]]]]]]]]]]]]]/////////C4#####################################...  }}}}}}}",
"}}}}}}   ################################4#////////]]]]]]]]]]]]]]]]]]]]]]]]]]]]]]]]]]]]]]]]]]]]]]]]]]]]]]]]]]]]]]]]]]]]]///////#/KC#####################################...  }}}}}}}",
"}}}}}}   #############################=##-U////////]]]]]]]]]]]]]]]]]]]]]]]]]]]]]]]]]]]]]]]]]]]]]]]]]]]]]]]]]]]]]]]]]]]]]/////////U-#####################################...  }}}}}}}",
"}}}}}}   ###############################=01#///////]]]]]]]]]]]]]]]]]]]]]]]]]]]]]]]]]]]]]]]]]]]]]]]]]]]]]]]]]]]]]]]]]]]]]]///////=/######################################...  }}}}}}}",
"}}}}}}   ###############################-Ge////////]]]]]]]]]]]]]]]]]]]]]]]]]]]]]]]]]]]]]]]]]]]]]]]]]]]]]]]]]]]]]]]]]]]]]]///////LK#=####################################...  }}}}}}}",
"}}}}}}   ##############################==-$///////]]]]]]]]]]]]]]]]]]]]]]]]]]]]]]]]]]]]]]]]]]]]]]]]]]]]]]]]]]]]]]]]]]]]]]]///////W%/E=###################################...  }}}}}}}",
"}}}}}}   ###########################W#=#U6!///////]]]]]]]]]]]]]]]]]]]]]]]]]]]]]]]]]]]]]]]]]]]]]]]]]]]]]]]]]]]]]]]]]]]]]]]////////L;-!K##################################...  }}}}}}}",
"}}}}}}   ##########################--#-#=!////////]]]]]]]]]]]]]]]]]]]]]]]]]]]]]]]]]]]]]]]]]]]]]]]]]]]]]]]]]]]]]]]]]]]]]]]]/////////L-pK#################################...  }}}}}}}",
"}}}}}}   ############################=1-UU!///////]]]]]]]]]]]]]]]]]]]]]]]]]]]]]]]]]]]]]]]]]]]]]]]]]]]]]]]]]]]]]]]]]]]]]]]]///////B/BKWN>################################...  }}}}}}}",
"}}}}}}   ##########################x87V8YKL//////]]]]]]]]]]]]]]]]]]]]]]]]]]]]]]]]]]]]]]]]]]]]]]]]]]]]]]]]]]]]]]]]]]]]]]]]]/////////!/KN#################################...  }}}}}}}",
"}}}}}}   ###########################8*,,vu!//////]]]]]]]]]]]]]]]]]]]]]]]]]]]]]]]]]]]]]]]]]]]]]]]]]]]]]]]]]]]]]]]]]]]]]]]]]//////////JWL9>###############################...  }}}}}}}",
"}}}}}}   ###########################k7*8FiW//////]]]]]]]]]]]]]]]]]]]]]]]]]]]]]]]]]]]]]]]]]]]]]]]]]]]]]]]]]]]]]]]]]]]]]]]]]////////K/WK$y$###############################...  }}}}}}}",
"}}}}}}   ############################,z=-W///////]]]]]]]]]]]]]]]]]]]]]]]]]]]]]]]]]]]]]]]]]]]]]]]]]]]]]]]]]]]]]]]]]]]]]]]]]]///////!/U6=2j###############################...  }}}}}}}",
"}}}}}}   ##########################h#ntK4/W//////]]]]]]]]]]]]]]]]]]]]]]]]]]]]]]]]]]]]]]]]]]]]]]]]]]]]]]]]]]]]]]]]]]]]]]]]]]////////!rsN-################################...  }}}}}}}",
"}}}}}}   ###########################-,EZW///////]]]]]]]]]]]]]]]]]]]]]]]]]]]]]]]]]]]]]]]]]]]]]]]]]]]]]]]]]]]]]]]]]]]]]]]]]]]////////////K=###############################...  }}}}}}}",
"}}}}}}   ############################<C4rW//////]]]]]]]]]]]]]]]]]]]]]]]]]]]]]]]]]]]]]]]]]]]]]]]]]]]]]]]]]]]]]]]]]]]]]]]]]]]///////////W!K################################..  }}}}}}}",
"}}}}}}   ..##########################MCZs///////]]]]]]]]]]]]]]]]]]]]]]]]]]]]]]]]]]]]]]]]]]]]]]]]]]]]]]]]]]]]]]]]]]]]]]]]]]]]////////W6r!Q=###############################..  }}}}}}}",
"}}}}}}   ..########################--#<g!///////]]]]]]]]]]]]]]]]]]]]]]]]]]]]]]]]]]]]]]]]]]]]]]]]]]]]]]]]]]]]]]]]]]]]]]]]]]]]////////#!L!!08##############################..  }}}}}}}",
"}}}}}}   ..########################-:f66///////]]]]]]]]]]]]]]O]OO]O]]]]]]]]]]]]]]]]]]]]]]]]]]]]]]]]]]]]]]]]]]]]]]]]]]]]]]]]]/////////!!rrM###############################..  }}}}}}}",
"}}}}}}   ..##########################T6r^//////]]]]]]]]]]]]]]OOOOOO]]]]]]]]]]]]]]]]]]]]]]]]]]]]]]]]]]]]]]]]]]]]]]]]]]]]]]]]]///////#/!!KUb#=#=###########################..  }}}}}}}",
"}}}}}}   ..########################ve6r!#//////]]]]]]]]]]]]]]]OOOO]]]]]]]]]]]]]]]]]]    ]]]]]]]]]]]]]]]]]]]]]]]]]]]]]]]]]]]]]/////////!YrI4##############################..  }}}}}}}",
"}}}}}}   ..#######################x#-TrU///////]]]]   ]]]]]]]]]]]]]]]]]]]]]]]]]]]]      ]]]]]]]]]]]]  ]]]]]]]]]]]]]]]]]]]]]]]/////////UrdAl=#############################..   }}}}}}",
"}}}}}}   ..#######################kke!R/#/////]]]]     ]    ]]    ]]   ]]]  ]]]]]     ]]]]]]]]]]]]]]   ]]]]]]]]]]]]]]]]]]]]]]//////////HWKK,#############################..   }}}}}}",
"}}}}}}   ..#######################&#a:!///////]]]]     ]    ]   ] ]    ]    ]]]]]   ]]]]]]]]]]]]]]]]]  ]]]]]]]]]]]]]]]]]]]]]]//////////^!WK####################  ########..   }}}}}}",
"}}}}}}   ..########################;#~////////]]]]  ]  ]  ]]]  ]  ]   ]]   ]]]]]]  ]]]]]]]]]]]]]]]]]]  ]]]]]]]]]]]]]]]]]]]]]]///////////WPD2################## {@  ######..   }}}}}}",
"}}}}}}  ..#######################m$;^5////////]]]]     ]  ]]]    ]]    ]    ]]]]]  ]]]]]]]]]]]]]]]]]]  ]]]]]]]]]]]]]]]]]]]]]]]//////////WeSq###############  # @@@@ #####..   }}}}}}",
"}}}}}}  ..########################=L=/////////]]]]    ]]  ]]]     ]]   ]]   ]]]]]  ]]]]]    ]  ]]]]]]  ]    ]]]]]]]]]]]]]   ]]//////////#%1%w############# {@   @#@@ ####...  }}}}}}",
"}}}}}}  ..############################//#////]]]]]  ]]]]]]]]]]    ]    ]    ]]]]]  ]        ]     ]]]       ]]     ]]       ]]//////////1#1q#### ######### @@@@@@##@ ####...  }}}}}}",
"}}}}}}  ..#############################//////]]]]]  ]]]]]]]]]]]]]]]    ]    ]]]]]        ]]]]      ]      ]]]      ]]       ]]/////////##,N#### { #######   @@#@@###@ ###...  }}}}}}",
"}}}}}}  ..############################///////]]]]]  ]]]]]]]]]]]]]]]]]]]]]]]]]]]]]]   ]]]]]]]]   ]  ]    ]]]]]   ]  ]]  ]]]]]]]]/////////##M#=## O  ##### {@@@@######@@ ##...  }}}}}}",
"}}}}}}  ..##############################/////]]]]]  ]]]]]     ]]]]]]]]]]]]]]]]]]]]  ]]]]]]]]]  ]]  ]]]  ]]]]   ]   ]]  ]]]]]]]]////////#=##c### OOO # #  @@##@###@###` ##...  }}}}}}",
"}}}}}}  ..###########################///////]]]]]]  ]]]           ]]]]]]]]  ]]]]]]  ]]]]]]]]]  ]]  ]]]  ]          ]]  ]]]]]]]]//////////c*#### O '' { O  @@###@##@##` ##...  }}}}}}",
"}}}}}}  ..########################W##///////]]]]]]]]]]    ]]]      ]]]]]    ]]]]]]  ]]]]]]]]   ]]  ]]]  ]        ]]]]   ]]]]]]]////////######## '  + O O # `####@#`##)` #...  }}}}}}",
"}}}}}}  ..########################=/////////]]]]]]]]]    ]]]]]]]            ]]]]]]   ]]    ]   ]]  ]]]   ]     ]]]]]]]  ]]]]]]]]////////####### +++  'OO # `####`#####) #...  }}}}}}",
"}}}}}}  ..#########################/////////]]]]]]     ]]]]]]]]]]]       ]]]]]]]]]]        ]]]]]]  ]]]]          ]]  ]  ]]]]]]]]////////########   ##  ' # )`#########) #...  }}}}}}",
"}}}}}}  ...########################////////]]]]]]]    ]]]]]]]]]]]]]    ]]]]]]]]]]]]     ]]]]]]]]]]]]]]]    ]]]       ]]]]]]]]]]]/////////########### + ' ## )####`####) #...  }}}}}}",
"}}}}}}  ...########################////////]]]]]]]]]]]]]]]]]]]]]]]]]]]]]]]]]]]]]]]]]]]]]]]]]]]]]]]]]]]]    ]]]]]     ]]]]]]]]]]]/////////########### + + ## )######### ##...   }}}}}",
"}}}}}}  ...#######################/#/#/////]]]]]]]]]]]]]]]]]]]]]]]]]]]]]]]]]]]]]]]]]]]]]]]]]]]]]]]]]]]]]]]]]]]]]]]]]]]]]]]]]]]]]]/////////########## ++ ### )############....  }}}}}",
"}}}}}}  ...########################/#//////]]]]]]]]]]]]]]]]]]]]]]]]]]]]]]]]]]]]]]]]]]]]]]]]]]]]]]]]]]]]]]]]]]]]]]]]]]]]]]]]]]]]]]//////////##########  #### )############....  }}}}}",
"}}}}}}  ..#######################/////////]]]]]]]]]]]]]]]]]]]]]]]]]]]]]]]]]]]]]]]]]]]]]]]]]]]]]]]]]]]]]]]]]]]]]]]]]]]]]]]]]]]]]]]//////////################# ############....  }}}}}",
"}}}}}}  ..######################/#////////]]]]]]]]]]]]]]]]]]]]]]]]]]]]]]]]]]]]]]]]]]]]]]]]]]]                                           ///##############################....  }}}}}",
"}}}}}}  ...#######################////////]]]]]]]]]]]]]]]]]]]]]                                                                                                  ########....  }}}}}",
"}}}}}}  ...###############                                                                    }}}}}}}}}}}}}}}}}}}}}}}}}}}}}                                                    }}}}}",
"}}}}}}                                                                }}}}}}}}}}}}}}}}}}}}}}}}}}}}}}}}}}}}}}}}}}}}}}}}}}}}}}}}}}}}}}}}}}}}}}}}}}}}}}}}}}}}}}}                  }}}}}",
"}}}}}}                                       }}}}}}}}}}}}}}}}}}}}}}}}}}}}}}}}}}}}}}}}}}}}}}}}}}}}}}}}}}}}}}}}}}}}}}}}}}}}}}}}}}}}}}}}}}}}}}}}}}}}}}}}}}}}}}}}}}}}}}}}}}}}}}}}}}}}}}}",
"}}}}}}}              }}}}}}}}}}}}}}}}}}}}}}}}}}}}}}}}}}}}}}}}}}}}}}}}}}}}}}}}}}}}}}}}}}}}}}}}}}}}}}}}}}}}}}}}}}}}}}}}}}}}}}}}}}}}}}}}}}}}}}}}}}}}}}}}}}}}}}}}}}}}}}}}}}}}}}}}}}}}}}}",
"}}}}}}}}}}}}}}}}}}}}}}}}}}}}}}}}}}}}}}}}}}}}}}}}}}}}}}}}}}}}}}}}}}}}}}}}}}}}}}}}}}}}}}}}}}}}}}}}}}}}}}}}}}}}}}}}}}}}}}}}}}}}}}}}}}}}}}}}}}}}}}}}}}}}}}}}}}}}}}}}}}}}}}}}}}}}}}}}}}}}"
};
