/* XPM */
static char *result[] = {
/* columns rows colors chars-per-pixel */
"16 32 6 1 ",
"  c #2B244D",
". c #3F4267",
"X c #76428A",
"o c #007DDF",
"O c #D77BBA",
"+ c None",
/* pixels */
"++++++++++++++++",
"+++++++oo+++++++",
"+++++oo  oo+++++",
"++++o  XX  o++++",
"+++o  OooX  o+++",
"+++o O.oo.X o+++",
"++o OooooooX o++",
"++o XooooooX o++",
"+o X.oooooo.O o+",
"+o XooooooooO o+",
"+o XooooooooX o+",
"+o XooooooooX o+",
"+o XooooooooO o+",
"+o XooooooooX o+",
"+o XooooooooX o+",
"+o XooooooooX o+",
"+o XooooooooO o+",
"+o OooooooooX o+",
"+o Ooooo  ooO o+",
"+o Xooo    oO o+",
"+o Xooo    oO o+",
"+o Xoooo  oo.X o",
"o X.oooooooooX o",
"o OooooooooooX o",
"o OooooooooooX o",
"oX ooooooooooX o",
"oX ooooooooooX o",
"oX ooooooooooX o",
"oX ooooooooooX o",
"oX ooooooooooX o",
"oO ooooooooooO o",
"oooooooooooooooo"
};
