/* XPM */
static char *result[] = {
/* columns rows colors chars-per-pixel */
"16 32 6 1 ",
"  c #2B244D",
". c #3F4267",
"X c #76428A",
"o c #007DDF",
"O c #D77BBA",
"+ c None",
/* pixels */
"++++++++++++++++",
"+++++++oo+++++++",
"+++++oo  oo+++++",
"++++o  XX  o++++",
"+++o  XooX  o+++",
"+++o O.oo.O o+++",
"++o XooooooX o++",
"++o XooooooX o++",
"+o O.oooooo.X o+",
"+o OooooooooO o+",
"+o XooooooooO o+",
"+o XooooooooO o+",
"+o XooooooooX o+",
"+o XooooooooX o+",
"+o XooooooooX o+",
"+o OooooooooX o+",
"+o OooooooooX o+",
"+o OooooooooO o+",
"+o Xoooo  ooO o+",
"+o Xooo    oO o+",
"+o Xooo    oX o+",
"+o Xoooo  oo.X o",
"o X.oooooooooX o",
"o XooooooooooX o",
"o XooooooooooO o",
"oX ooooooooooO o",
"oX ooooooooooO o",
"oO ooooooooooX o",
"oO ooooooooooX o",
"oX ooooooooooX o",
"oX ooooooooooX o",
"oooooooooooooooo"
};
