/* XPM */
static char *result[] = {
/* columns rows colors chars-per-pixel */
"16 32 6 1 ",
"  c #2B244D",
". c #3F4267",
"X c #76428A",
"o c #007DDF",
"O c #D77BBA",
"+ c None",
/* pixels */
"++++++++++++++++",
"+++++++oo+++++++",
"+++++oo  oo+++++",
"++++o  OX  o++++",
"+++o  XooX  o+++",
"+++o X.oo.X o+++",
"++o OooooooX o++",
"++o OooooooO o++",
"+o X.oooooo.X o+",
"+o XooooooooX o+",
"+o XooooooooX o+",
"+o XooooooooO o+",
"+o XooooooooO o+",
"+o OooooooooO o+",
"+o OooooooooX o+",
"+o OooooooooX o+",
"+o XooooooooX o+",
"+o XooooooooX o+",
"+o Xoooo  ooX o+",
"+o Xooo    oX o+",
"+o Xooo    oX o+",
"+o Xoooo  oo.O o",
"o X.oooooooooO o",
"o XooooooooooO o",
"o XooooooooooX o",
"oO ooooooooooX o",
"oO ooooooooooX o",
"oX ooooooooooO o",
"oX ooooooooooO o",
"oX ooooooooooO o",
"oX ooooooooooX o",
"oooooooooooooooo"
};
