/* XPM */
static char *result[] = {
/* columns rows colors chars-per-pixel */
"16 32 6 1 ",
"  c #2B244D",
". c #3F4267",
"X c #76428A",
"o c #007DDF",
"O c #D77BBA",
"+ c None",
/* pixels */
"++++++++++++++++",
"+++++++oo+++++++",
"+++++oo  oo+++++",
"++++o  XO  o++++",
"+++o  XooO  o+++",
"+++o X.oo.X o+++",
"++o XooooooX o++",
"++o XooooooO o++",
"+o X.oooooo.X o+",
"+o OooooooooX o+",
"+o OooooooooX o+",
"+o OooooooooX o+",
"+o XooooooooX o+",
"+o XooooooooO o+",
"+o XooooooooX o+",
"+o XooooooooO o+",
"+o XooooooooO o+",
"+o XooooooooO o+",
"+o Xoooo  ooX o+",
"+o Xooo    oX o+",
"+o Oooo    oX o+",
"+o Ooooo  oo.X o",
"o X.oooooooooX o",
"o XooooooooooX o",
"o XooooooooooX o",
"oX ooooooooooO o",
"oX ooooooooooO o",
"oX ooooooooooO o",
"oO ooooooooooX o",
"oO ooooooooooX o",
"oX ooooooooooX o",
"oooooooooooooooo"
};
