/* XPM */
static char *result[] = {
/* columns rows colors chars-per-pixel */
"16 32 6 1 ",
"  c #2B244D",
". c #3F4267",
"X c #76428A",
"o c #007DDF",
"O c #D77BBA",
"+ c None",
/* pixels */
"++++++++++++++++",
"+++++++oo+++++++",
"+++++oo  oo+++++",
"++++o  XX  o++++",
"+++o  OooO  o+++",
"+++o O.oo.X o+++",
"++o XooooooX o++",
"++o XooooooX o++",
"+o X.oooooo.X o+",
"+o XooooooooX o+",
"+o XooooooooO o+",
"+o OooooooooX o+",
"+o OooooooooX o+",
"+o OooooooooO o+",
"+o XooooooooO o+",
"+o XooooooooO o+",
"+o XooooooooX o+",
"+o XooooooooX o+",
"+o Xoooo  ooX o+",
"+o Xooo    oX o+",
"+o Xooo    oX o+",
"+o Xoooo  oo.X o",
"o X.oooooooooX o",
"o OooooooooooO o",
"o OooooooooooO o",
"oX ooooooooooO o",
"oX ooooooooooX o",
"oX ooooooooooX o",
"oX ooooooooooX o",
"oX ooooooooooX o",
"oO ooooooooooO o",
"oooooooooooooooo"
};
